<?xml version="1.0" encoding="UTF-8"?>
<!DOCTYPE svg PUBLIC "-//W3C//DTD SVG 1.1//EN" "http://www.w3.org/Graphics/SVG/1.1/DTD/svg11.dtd">
<svg xmlns="http://www.w3.org/2000/svg" version="1.1" width="192px" height="192px" style="shape-rendering:geometricPrecision; text-rendering:geometricPrecision; image-rendering:optimizeQuality; fill-rule:evenodd; clip-rule:evenodd" xmlns:xlink="http://www.w3.org/1999/xlink">
<g><path style="opacity:0.008" fill="#2b4064" d="M 30.5,17.5 C 73.9981,16.3352 117.665,16.1686 161.5,17C 165.226,18.0432 164.893,18.5432 160.5,18.5C 117.337,17.5013 74.0032,17.168 30.5,17.5 Z"/></g>
<g><path style="opacity:0.008" fill="#000000" d="M 30.5,17.5 C 74.0032,17.168 117.337,17.5013 160.5,18.5C 117.094,18.1724 73.7611,18.5057 30.5,19.5C 30.5,19.1667 30.5,18.8333 30.5,18.5C 30.5,18.1667 30.5,17.8333 30.5,17.5 Z"/></g>
<g><path style="opacity:0.02" fill="#324666" d="M 30.5,17.5 C 30.5,17.8333 30.5,18.1667 30.5,18.5C 29.209,18.2627 28.209,18.596 27.5,19.5C 27.5,20.1667 27.1667,20.5 26.5,20.5C 26.1667,19.1667 25.8333,19.1667 25.5,20.5C 25.5,21.1667 25.1667,21.5 24.5,21.5C 24.5,20.8333 24.1667,20.5 23.5,20.5C 25.1757,18.1663 27.509,17.1663 30.5,17.5 Z"/></g>
<g><path style="opacity:0.811" fill="#5e8bd7" d="M 160.5,18.5 C 162.302,19.4582 164.302,20.1249 166.5,20.5C 166.5,21.1667 166.833,21.5 167.5,21.5C 167.5,22.1667 167.833,22.5 168.5,22.5C 168.5,23.1667 168.833,23.5 169.5,23.5C 169.5,23.8333 169.5,24.1667 169.5,24.5C 167.072,22.9565 164.406,21.9565 161.5,21.5C 117.669,20.3352 73.6686,20.1686 29.5,21C 25.4385,22.5657 22.1052,25.0657 19.5,28.5C 19.5,27.8333 19.5,27.1667 19.5,26.5C 20.1667,26.5 20.5,26.1667 20.5,25.5C 21.3382,25.1583 21.6716,24.4916 21.5,23.5C 22.1667,23.5 22.5,23.1667 22.5,22.5C 23.1667,22.5 23.5,22.1667 23.5,21.5C 23.8333,21.5 24.1667,21.5 24.5,21.5C 25.1667,21.5 25.5,21.1667 25.5,20.5C 25.8333,20.5 26.1667,20.5 26.5,20.5C 27.1667,20.5 27.5,20.1667 27.5,19.5C 28.5,19.5 29.5,19.5 30.5,19.5C 73.7611,18.5057 117.094,18.1724 160.5,18.5 Z"/></g>
<g><path style="opacity:0.044" fill="#04060c" d="M 166.5,20.5 C 168.771,20.3674 170.938,21.3674 173,23.5C 175.11,26.4917 176.443,29.825 177,33.5C 177.979,78.2126 177.646,122.879 176,167.5C 174.167,173.333 170.333,177.167 164.5,179C 141.53,180.129 118.53,180.629 95.5,180.5C 74.8333,180.333 54.1667,180.167 33.5,180C 22.1309,178.964 15.6309,172.798 14,161.5C 13.3333,119.5 13.3333,77.5 14,35.5C 14.4713,30.4138 16.3046,25.9138 19.5,22C 20.745,21.2086 22.0783,20.7086 23.5,20.5C 23.5,20.8333 23.5,21.1667 23.5,21.5C 22.8333,21.5 22.5,21.8333 22.5,22.5C 21.8333,22.5 21.5,22.8333 21.5,23.5C 21.6716,24.4916 21.3382,25.1583 20.5,25.5C 19.8333,25.5 19.5,25.8333 19.5,26.5C 19.5,27.1667 19.5,27.8333 19.5,28.5C 19.1679,73.6698 19.5013,118.67 20.5,163.5C 20.7497,165.674 21.7497,167.341 23.5,168.5C 24.0577,169.79 25.0577,170.623 26.5,171C 72.6685,171.832 118.668,171.665 164.5,170.5C 168.584,168.908 171.084,165.908 172,161.5C 172.667,117.5 172.667,73.5 172,29.5C 171.392,27.8455 170.892,26.1789 170.5,24.5C 170.5,23.8333 170.167,23.5 169.5,23.5C 168.833,23.5 168.5,23.1667 168.5,22.5C 167.833,22.5 167.5,22.1667 167.5,21.5C 166.833,21.5 166.5,21.1667 166.5,20.5 Z"/></g>
<g><path style="opacity:1" fill="#468afd" d="M 103.5,21.5 C 122.833,21.5 142.167,21.5 161.5,21.5C 164.406,21.9565 167.072,22.9565 169.5,24.5C 169.833,24.5 170.167,24.5 170.5,24.5C 170.892,26.1789 171.392,27.8455 172,29.5C 172.667,73.5 172.667,117.5 172,161.5C 171.084,165.908 168.584,168.908 164.5,170.5C 120.165,170.667 75.8321,170.5 31.5,170C 28.7934,169.605 26.1267,169.105 23.5,168.5C 21.7497,167.341 20.7497,165.674 20.5,163.5C 21.4854,146.244 21.8187,128.91 21.5,111.5C 26.6009,110.857 31.6009,109.691 36.5,108C 43.9441,104.934 51.2774,101.934 58.5,99C 47.6324,105.598 35.9658,110.265 23.5,113C 26.2004,113.253 28.867,113.253 31.5,113C 28.7039,114.44 26.0372,115.273 23.5,115.5C 22.3483,118.106 22.1816,120.773 23,123.5C 23.6667,122.167 24.3333,122.167 25,123.5C 27.7246,122.128 30.3912,121.128 33,120.5C 33.3333,120.833 33.6667,121.167 34,121.5C 35.8159,119.559 37.8159,118.892 40,119.5C 41.8951,117.223 43.0618,114.556 43.5,111.5C 44.1667,119.323 44.8334,126.99 45.5,134.5C 45.5,135.167 45.8333,135.5 46.5,135.5C 47.5196,139.358 49.8529,142.192 53.5,144C 61.8267,144.5 70.16,144.666 78.5,144.5C 79.4816,141.038 79.815,137.371 79.5,133.5C 72.5,133.5 65.5,133.5 58.5,133.5C 58.8333,126.167 59.1667,118.833 59.5,111.5C 62.4245,111.54 65.0912,110.707 67.5,109C 86.9849,97.1824 101.985,81.1824 112.5,61C 112.167,60.6667 111.833,60.3333 111.5,60C 118.815,59.1683 126.148,58.6683 133.5,58.5C 133.5,65.5 133.5,72.5 133.5,79.5C 137.371,79.815 141.038,79.4816 144.5,78.5C 144.666,70.16 144.5,61.8267 144,53.5C 142.192,49.8529 139.358,47.5196 135.5,46.5C 135.5,45.8333 135.167,45.5 134.5,45.5C 126.765,44.8191 118.932,44.1524 111,43.5C 109.209,45.5127 107.875,45.5127 107,43.5C 102.753,54.3415 96.7534,64.0082 89,72.5C 94.4272,64.3428 99.4272,55.6762 104,46.5C 107.21,38.7057 109.71,30.7057 111.5,22.5C 108.615,22.8064 105.948,22.4731 103.5,21.5 Z"/></g>
<g><path style="opacity:0.999" fill="#4f91fd" d="M 161.5,21.5 C 142.167,21.5 122.833,21.5 103.5,21.5C 90.8289,21.3334 78.1623,21.5001 65.5,22C 70.8333,22.3333 76.1667,22.6667 81.5,23C 78.7382,30.2923 75.4049,37.2923 71.5,44C 74.6752,43.9467 77.3419,44.78 79.5,46.5C 79.1667,46.5 78.8333,46.5 78.5,46.5C 70.16,46.3336 61.8267,46.5003 53.5,47C 50.6667,48.5 48.5,50.6667 47,53.5C 46.5003,61.8267 46.3336,70.16 46.5,78.5C 46.5,78.8333 46.5,79.1667 46.5,79.5C 44.78,77.3419 43.9467,74.6752 44,71.5C 37.3528,75.8856 30.1861,79.219 22.5,81.5C 21.5015,91.4778 21.1681,101.478 21.5,111.5C 21.8187,128.91 21.4854,146.244 20.5,163.5C 19.5013,118.67 19.1679,73.6698 19.5,28.5C 22.1052,25.0657 25.4385,22.5657 29.5,21C 73.6686,20.1686 117.669,20.3352 161.5,21.5 Z"/></g>
<g><path style="opacity:1" fill="#3a6ec4" d="M 134.5,45.5 C 135.167,45.5 135.5,45.8333 135.5,46.5C 127.833,46.5 120.167,46.5 112.5,46.5C 112.5,50.1667 112.5,53.8333 112.5,57.5C 111.517,53.7016 111.183,49.7016 111.5,45.5C 119.167,45.5 126.833,45.5 134.5,45.5 Z"/></g>
<g><path style="opacity:1" fill="#0e0e0f" d="M 78.5,46.5 C 78.5,49.8333 78.5,53.1667 78.5,56.5C 71.3134,56.1755 64.3134,56.5088 57.5,57.5C 56.5088,64.3134 56.1755,71.3134 56.5,78.5C 53.1667,78.5 49.8333,78.5 46.5,78.5C 46.3336,70.16 46.5003,61.8267 47,53.5C 48.5,50.6667 50.6667,48.5 53.5,47C 61.8267,46.5003 70.16,46.3336 78.5,46.5 Z"/></g>
<g><path style="opacity:1" fill="#060608" d="M 135.5,46.5 C 139.358,47.5196 142.192,49.8529 144,53.5C 144.5,61.8267 144.666,70.16 144.5,78.5C 141.167,78.5 137.833,78.5 134.5,78.5C 134.825,71.3134 134.491,64.3134 133.5,57.5C 126.5,57.5 119.5,57.5 112.5,57.5C 112.5,53.8333 112.5,50.1667 112.5,46.5C 120.167,46.5 127.833,46.5 135.5,46.5 Z"/></g>
<g><path style="opacity:1" fill="#182235" d="M 78.5,46.5 C 78.8333,46.5 79.1667,46.5 79.5,46.5C 79.5,50.1667 79.5,53.8333 79.5,57.5C 72.1667,57.5 64.8333,57.5 57.5,57.5C 64.3134,56.5088 71.3134,56.1755 78.5,56.5C 78.5,53.1667 78.5,49.8333 78.5,46.5 Z"/></g>
<g><path style="opacity:1" fill="#172235" d="M 57.5,57.5 C 57.5,64.8333 57.5,72.1667 57.5,79.5C 53.8333,79.5 50.1667,79.5 46.5,79.5C 46.5,79.1667 46.5,78.8333 46.5,78.5C 49.8333,78.5 53.1667,78.5 56.5,78.5C 56.1755,71.3134 56.5088,64.3134 57.5,57.5 Z"/></g>
<g><path style="opacity:1" fill="#192e52" d="M 133.5,57.5 C 134.491,64.3134 134.825,71.3134 134.5,78.5C 137.833,78.5 141.167,78.5 144.5,78.5C 141.038,79.4816 137.371,79.815 133.5,79.5C 133.5,72.5 133.5,65.5 133.5,58.5C 133.5,58.1667 133.5,57.8333 133.5,57.5 Z"/></g>
<g><path style="opacity:1" fill="#4b8efe" d="M 103.5,21.5 C 105.948,22.4731 108.615,22.8064 111.5,22.5C 109.71,30.7057 107.21,38.7057 104,46.5C 99.4272,55.6762 94.4272,64.3428 89,72.5C 96.7534,64.0082 102.753,54.3415 107,43.5C 107.875,45.5127 109.209,45.5127 111,43.5C 118.932,44.1524 126.765,44.8191 134.5,45.5C 126.833,45.5 119.167,45.5 111.5,45.5C 111.183,49.7016 111.517,53.7016 112.5,57.5C 119.5,57.5 126.5,57.5 133.5,57.5C 133.5,57.8333 133.5,58.1667 133.5,58.5C 126.148,58.6683 118.815,59.1683 111.5,60C 111.833,60.3333 112.167,60.6667 112.5,61C 101.985,81.1824 86.9849,97.1824 67.5,109C 65.0912,110.707 62.4245,111.54 59.5,111.5C 59.1667,118.833 58.8333,126.167 58.5,133.5C 58.1667,133.5 57.8333,133.5 57.5,133.5C 57.5,126.5 57.5,119.5 57.5,112.5C 53.7016,111.517 49.7016,111.183 45.5,111.5C 45.5,119.167 45.5,126.833 45.5,134.5C 44.8334,126.99 44.1667,119.323 43.5,111.5C 43.0618,114.556 41.8951,117.223 40,119.5C 37.8159,118.892 35.8159,119.559 34,121.5C 33.6667,121.167 33.3333,120.833 33,120.5C 30.3912,121.128 27.7246,122.128 25,123.5C 24.3333,122.167 23.6667,122.167 23,123.5C 22.1816,120.773 22.3483,118.106 23.5,115.5C 26.0372,115.273 28.7039,114.44 31.5,113C 28.867,113.253 26.2004,113.253 23.5,113C 35.9658,110.265 47.6324,105.598 58.5,99C 51.2774,101.934 43.9441,104.934 36.5,108C 31.6009,109.691 26.6009,110.857 21.5,111.5C 21.1681,101.478 21.5015,91.4778 22.5,81.5C 30.1861,79.219 37.3528,75.8856 44,71.5C 43.9467,74.6752 44.78,77.3419 46.5,79.5C 50.1667,79.5 53.8333,79.5 57.5,79.5C 57.5,72.1667 57.5,64.8333 57.5,57.5C 64.8333,57.5 72.1667,57.5 79.5,57.5C 79.5,53.8333 79.5,50.1667 79.5,46.5C 77.3419,44.78 74.6752,43.9467 71.5,44C 75.4049,37.2923 78.7382,30.2923 81.5,23C 76.1667,22.6667 70.8333,22.3333 65.5,22C 78.1623,21.5001 90.8289,21.3334 103.5,21.5 Z"/></g>
<g><path style="opacity:1" fill="#3a6ec4" d="M 57.5,112.5 C 53.8333,112.5 50.1667,112.5 46.5,112.5C 46.5,120.167 46.5,127.833 46.5,135.5C 45.8333,135.5 45.5,135.167 45.5,134.5C 45.5,126.833 45.5,119.167 45.5,111.5C 49.7016,111.183 53.7016,111.517 57.5,112.5 Z"/></g>
<g><path style="opacity:1" fill="#000001" d="M 144.5,112.5 C 144.943,121.608 144.443,130.608 143,139.5C 141.457,141.378 139.624,142.878 137.5,144C 129.173,144.5 120.84,144.666 112.5,144.5C 112.5,141.167 112.5,137.833 112.5,134.5C 119.687,134.825 126.687,134.491 133.5,133.5C 134.491,126.687 134.825,119.687 134.5,112.5C 137.833,112.5 141.167,112.5 144.5,112.5 Z"/></g>
<g><path style="opacity:1" fill="#19325d" d="M 144.5,112.5 C 141.167,112.5 137.833,112.5 134.5,112.5C 134.825,119.687 134.491,126.687 133.5,133.5C 133.5,126.167 133.5,118.833 133.5,111.5C 137.371,111.185 141.038,111.518 144.5,112.5 Z"/></g>
<g><path style="opacity:1" fill="#060608" d="M 57.5,112.5 C 57.5,119.5 57.5,126.5 57.5,133.5C 64.3134,134.491 71.3134,134.825 78.5,134.5C 78.5,137.833 78.5,141.167 78.5,144.5C 70.16,144.666 61.8267,144.5 53.5,144C 49.8529,142.192 47.5196,139.358 46.5,135.5C 46.5,127.833 46.5,120.167 46.5,112.5C 50.1667,112.5 53.8333,112.5 57.5,112.5 Z"/></g>
<g><path style="opacity:1" fill="#192e52" d="M 57.5,133.5 C 57.8333,133.5 58.1667,133.5 58.5,133.5C 65.5,133.5 72.5,133.5 79.5,133.5C 79.815,137.371 79.4816,141.038 78.5,144.5C 78.5,141.167 78.5,137.833 78.5,134.5C 71.3134,134.825 64.3134,134.491 57.5,133.5 Z"/></g>
<g><path style="opacity:1" fill="#19325d" d="M 133.5,133.5 C 126.687,134.491 119.687,134.825 112.5,134.5C 112.5,137.833 112.5,141.167 112.5,144.5C 111.518,141.038 111.185,137.371 111.5,133.5C 118.833,133.5 126.167,133.5 133.5,133.5 Z"/></g>
<g><path style="opacity:0.969" fill="#3771d1" d="M 23.5,168.5 C 26.1267,169.105 28.7934,169.605 31.5,170C 75.8321,170.5 120.165,170.667 164.5,170.5C 118.668,171.665 72.6685,171.832 26.5,171C 25.0577,170.623 24.0577,169.79 23.5,168.5 Z"/></g>
</svg>