<svg id="svg" version="1.1" xmlns="http://www.w3.org/2000/svg" xmlns:xlink="http://www.w3.org/1999/xlink" width="400" height="400" viewBox="0, 0, 400,400"><g id="svgg"><path id="path0" d="M99.869 99.864 C 99.721 100.012,99.600 114.953,99.600 133.067 L 99.600 166.000 66.447 166.000 L 33.293 166.000 33.052 166.900 C 32.919 167.395,32.808 182.875,32.805 201.300 L 32.800 234.800 66.200 234.800 L 99.600 234.800 99.600 267.200 L 99.600 299.600 66.200 299.600 L 32.800 299.600 32.800 333.802 L 32.800 368.004 67.100 367.902 L 101.400 367.800 101.502 334.700 L 101.605 301.600 200.602 301.600 L 299.600 301.600 299.600 334.802 L 299.600 368.004 333.700 367.902 L 367.800 367.800 367.902 333.700 L 368.004 299.600 334.802 299.600 L 301.600 299.600 301.600 267.200 L 301.600 234.800 334.804 234.800 L 368.009 234.800 367.996 200.639 C 367.984 170.067,367.917 166.454,367.359 166.239 C 367.015 166.108,352.080 166.000,334.170 166.000 L 301.605 166.000 301.502 132.900 L 301.400 99.800 200.769 99.698 C 145.422 99.641,100.017 99.716,99.869 99.864 M166.000 200.400 L 166.000 232.800 133.800 232.800 L 101.600 232.800 101.600 200.400 L 101.600 168.000 133.800 168.000 L 166.000 168.000 166.000 200.400 M299.600 200.400 L 299.600 232.800 267.200 232.800 L 234.800 232.800 234.800 200.400 L 234.800 168.000 267.200 168.000 L 299.600 168.000 299.600 200.400 " stroke="none" fill="#c4545c" fill-rule="evenodd"></path><path id="path1" d="" stroke="none" fill="#c8545c" fill-rule="evenodd"></path><path id="path2" d="" stroke="none" fill="#c8545c" fill-rule="evenodd"></path><path id="path3" d="" stroke="none" fill="#c8545c" fill-rule="evenodd"></path><path id="path4" d="" stroke="none" fill="#c8545c" fill-rule="evenodd"></path></g></svg>